<?xml version="1.0" encoding="utf-8"?>
<!-- Generator: Adobe Illustrator 23.0.6, SVG Export Plug-In . SVG Version: 6.00 Build 0)  -->
<svg version="1.1" id="Calque_1" xmlns="http://www.w3.org/2000/svg" xmlns:xlink="http://www.w3.org/1999/xlink" x="0px" y="0px"
	 viewBox="0 0 209 100" style="enable-background:new 0 0 209 100;" xml:space="preserve">
<g>
	<path d="M208.7,23.5c-0.4-0.2-1-1.3-1.3-1.5l0-0.1l0.1-0.1l0.3-0.1l0.3-0.1c0,0,0.4-0.1,0.4-0.2c0-0.1-0.1-0.1-0.1-0.1
		s-0.1-0.1-0.2-0.1c-0.1,0-0.2,0-0.3,0c-0.1,0-0.5-0.1-0.5-0.1s-3-0.2-3.6-0.3c0,0-3.5-0.2-7.8-2.1l-3.5-1.9l-3.2-1.7
		c0,0-0.9-0.6-2.1-0.9c0,0-1.8-0.5-2.7-1.2c0,0-1.4-1-2.3-2c0,0-1.6-1.4-3.4-1.5c0,0-2-0.4-3.7,0.2c0,0-1.3,0.6-1.9,1.8
		c0,0-0.1,0.3,0.1,0.5l-1.1,0.7l-0.4,0.4c0,0-0.1,0.1-0.2,0.2c0,0.1,0.1,0.1,0.1,0.1l0.7,0.3c0,0,0.4,0.2,0.6,0.2
		c0.2,0,0.6,0.1,0.8,0l0,0.1c0,0,0,0.1,0.3,1c0,0-0.1,0.5,0.2,2c0,0,0.4,3.7,3.2,5.9c0,0,1.3,1.1,2.2,1.6c0.9,0.4,3.6,1.4,5,1.6
		l0.1,0l-0.3,0.1l-0.6,0.3l-0.5,0.2l-0.5,0.1h-0.5l-0.3-0.1l-0.5-0.2c0,0-0.7-0.1-0.8,0c0,0,0.4,0.2,0.5,0.3c0,0-0.5,0.1-0.8-0.1
		c0,0-0.5-0.2-0.9,0.1c-0.9-0.1-1.8-0.2-2.8-0.2c-2.3,0-4.3,0.5-6,1.4c-1.8,0.9-3.3,2-4.7,3.1h-0.7c-1.5-1.1-3.3-2.2-5.5-3.1
		c-2.2-0.9-4.8-1.4-7.8-1.4c-3.4,0-6.2,1.4-7.6,4.5l-0.9-0.2v-3.8h-15v2.7c4.3,0.9,6.5,2.2,6.5,3.8V78l8.6,0V42.6
		c0-1.7,0.1-3.3,0.2-4.9c0.2-1.5,0.5-2.9,1.1-4.1c0.6-1.2,1.4-2.1,2.6-2.9c1.1-0.7,2.7-1.1,4.6-1.1c2.2,0,3.9,0.5,5.2,1.5
		c1.3,1,2.3,2.2,2.9,3.7c0.7,1.5,1.1,3.2,1.2,5.1c0.2,1.9,0.2,3.8,0.2,5.7V78h7.1V39.8c0-1.5,0.1-3,0.2-4.2c0.2-1.3,0.5-2.3,1-3.2
		c0.5-0.9,1.3-1.6,2.4-2c1.1-0.4,2.5-0.7,4.4-0.7c2.2,0,3.9,0.5,5.2,1.5c1.3,1,2.3,2.2,2.9,3.7c0.7,1.5,1.1,3.2,1.2,5.1
		c0.2,1.9,0.2,3.8,0.2,5.7V78l8.2,0V45.8c0-3.3-0.3-6.1-0.9-8.4c-0.6-2.4-1.5-4.3-2.9-5.9c-1-1.2-2.4-2.1-4-2.9l0.3,0l1.2,0.1
		l0.3-0.1l0-0.3c0,0,0.1-0.5,0.8,0l0.3,0.3c0,0,0-0.7-0.8-0.9c0,0-0.5-0.1-0.8,0.2l-0.2,0l-0.4,0l-0.5-0.1l-0.5-0.1l0.1-0.2
		c0,0,0.1-0.4,0.3-0.3l0.5,0.2l0.1-0.1l-0.4-0.4l1.2-1.1c0,0,3.3-0.2,4.3-1.7c0,0,0.8,0,1.3,0.2c0.5,0.2,2.1,0.1,2.9,0.3
		c0.8,0.2,1.8,0.2,1.8,0.2s0.6-0.1-0.1-0.5c0,0-0.5-0.6-0.8-0.7l-1.6-0.9l0.8-0.1l1.5-0.2c0,0,1.4-0.4,3,0.1l1.7,0.4
		c0,0,2.3,0.3,3.5,0.6c1.3,0.3,1.7,0.4,1.8,0.4c0.1,0,0.3-0.1,0.3-0.1L209,24C209,24,209.1,23.6,208.7,23.5 M56,28.2h0.1
		c5.8,0.1,8.7,5.9,8.7,17.4v0.7l-0.6,0.6H47.8l-0.6-0.6C47.3,34.3,50.3,28.2,56,28.2 M74.2,49.6c0-15.6-5.8-23.5-17.3-23.5
		c-6.6,0-11.5,2.3-14.6,6.7c-3.1,4.5-4.6,11.1-4.6,19.9c0,8.1,1.5,14.2,4.6,18.4c3,4.2,7.8,6.4,14.3,6.4H57c4.5,0,8.1-0.8,10.8-2.3
		c2.7-1.5,4.7-3.8,6-6.8l-2.4-1.8c-3.2,5.1-6.6,7.7-10.3,7.9h-0.2c-9.3,0-14-8.2-14-24.5l0.6-0.6H74.2z M121.2,30.7
		c-0.9-1.2-1.8-2.2-2.9-2.8c-1.1-0.7-2.3-1.1-3.5-1.3c-1.2-0.2-2.3-0.4-3.3-0.4h-0.4c-4.2,0-7.3,1.8-9.4,5.4l-1.1-0.4v-4.2h-15v2.7
		c4.4,0.9,6.6,2.2,6.6,3.8V78h8.4V48c0-3.9,0.2-7.1,0.7-9.5c0.5-2.4,1.1-4.3,2-5.6c0.8-1.3,1.8-2.2,2.8-2.7c1.1-0.4,2.2-0.7,3.3-0.7
		c1.1,0,2.3,0.2,3.4,0.7l0.3,0.4l0,0.6l0,0.4c0,0.8-0.5,2-0.5,3.4c0,1.3,0.4,2.5,1.2,3.4c0.8,0.9,1.9,1.4,3.2,1.4
		c1.5,0,2.8-0.5,3.8-1.6c1-1.1,1.5-2.4,1.6-4c-0.2-1.5-0.6-2.7-1.3-3.7L121.2,30.7z M6.8,18.6v7.7L6.2,27H0v2.8
		c4.6,0.9,6.8,1.9,6.8,2.9v45.2l8.6,0V32.7c0-1.1,2.6-2,7.7-2.9V27H16l-0.6-0.6v-3.8C15.5,9.6,19.5,3,27.5,2.7V0
		C13.7,0,6.8,6.2,6.8,18.6"/>
	<polygon points="38.1,91.7 39.2,91.7 39.2,99 42.7,99 42.7,99.9 38.1,99.9 	"/>
	<rect x="62.2" y="91.7" width="1.1" height="8.2"/>
	<path d="M85.3,99.9l-2.7-8.2h1.2l1.3,4.1c0.3,1.1,0.6,2.1,0.9,3.1h0c0.2-1,0.6-2,0.9-3.1l1.4-4.1h1.1l-2.9,8.2H85.3z"/>
	<rect x="108.6" y="91.7" width="1.1" height="8.2"/>
	<path d="M129.9,99.9v-8.2h1.2l2.6,4.2c0.6,1,1.1,1.8,1.5,2.7l0,0c-0.1-1.1-0.1-2.1-0.1-3.4v-3.5h1v8.2H135l-2.6-4.2
		c-0.6-0.9-1.1-1.9-1.5-2.7l0,0c0.1,1,0.1,2,0.1,3.4v3.5H129.9z"/>
	<path d="M162.5,99.5c-0.5,0.2-1.4,0.5-2.5,0.5c-1.2,0-2.3-0.3-3.1-1.1c-0.7-0.7-1.2-1.8-1.2-3.1c0-2.5,1.7-4.3,4.5-4.3
		c0.9,0,1.7,0.2,2.1,0.4l-0.3,0.9c-0.4-0.2-1-0.4-1.8-0.4c-2,0-3.3,1.2-3.3,3.3c0,2.1,1.2,3.3,3.2,3.3c0.7,0,1.2-0.1,1.4-0.2v-2.5
		h-1.7v-0.9h2.7V99.5z"/>
</g>
</svg>
