<svg width="43" height="43" viewBox="0 0 43 43" fill="none" xmlns="http://www.w3.org/2000/svg">
<g clip-path="url(#clip0_128_1627)">
<path d="M42.7282 6.25422C42.4928 5.96002 42.1365 5.78878 41.7596 5.78878H8.74714L7.82398 1.7886C7.69406 1.22582 7.19293 0.827148 6.61536 0.827148H1.24037C0.555389 0.827148 0 1.38254 0 2.0676C0 2.75266 0.555389 3.30796 1.24037 3.30796H5.62863L11.8949 30.4619C12.0247 31.0247 12.5259 31.4233 13.1035 31.4233H37.9557C38.6408 31.4233 39.1961 30.8679 39.1961 30.183C39.1961 29.4979 38.6407 28.9426 37.9557 28.9426H14.0903L13.1362 24.808H38.0385C38.6187 24.808 39.1214 24.4058 39.2487 23.8399L42.9698 7.30142C43.0525 6.93374 42.9636 6.5485 42.7282 6.25422ZM37.0462 22.3271H12.5637L9.31966 8.26951H40.2091L37.0462 22.3271ZM18.1923 33.0771C15.6845 33.0771 13.6442 35.1174 13.6442 37.6252C13.6442 40.1331 15.6844 42.1733 18.1923 42.1733C20.7 42.1733 22.7404 40.1331 22.7404 37.6252C22.7404 35.1174 20.7001 33.0771 18.1923 33.0771ZM18.1923 39.6926C17.0524 39.6926 16.125 38.7652 16.125 37.6252C16.125 36.4853 17.0524 35.558 18.1923 35.558C19.3322 35.558 20.2596 36.4853 20.2596 37.6252C20.2596 38.7652 19.3322 39.6926 18.1923 39.6926ZM33.0769 33.0771C30.5691 33.0771 28.5288 35.1174 28.5288 37.6252C28.5288 40.1331 30.5691 42.1733 33.0769 42.1733C35.5847 42.1733 37.625 40.1331 37.625 37.6252C37.625 35.1174 35.5848 33.0771 33.0769 33.0771ZM33.0769 39.6926C31.937 39.6926 31.0096 38.7652 31.0096 37.6253C31.0096 36.4854 31.937 35.558 33.0769 35.558C34.2168 35.558 35.1442 36.4854 35.1442 37.6253C35.1442 38.7652 34.2168 39.6926 33.0769 39.6926Z" fill="black"/>
</g>
<defs>
<clipPath id="clip0_128_1627">
<rect width="43" height="43" fill="white"/>
</clipPath>
</defs>
</svg>
