<svg width="42" height="43" viewBox="0 0 42 43" fill="none" xmlns="http://www.w3.org/2000/svg">
<mask id="mask0_140_822" style="mask-type:alpha" maskUnits="userSpaceOnUse" x="0" y="0" width="42" height="42">
<path d="M0 0.0820312H41.9867V41.349H0V0.0820312Z" fill="white"/>
</mask>
<g mask="url(#mask0_140_822)">
<path fill-rule="evenodd" clip-rule="evenodd" d="M20.9933 0.0820312C15.2919 0.0820312 14.5769 0.105784 12.3378 0.206199C10.1032 0.306368 8.57725 0.655201 7.24183 1.1653C5.86142 1.69252 4.69058 2.39805 3.5235 3.54513C2.35633 4.69229 1.63858 5.84297 1.10208 7.19972C0.583083 8.51224 0.22825 10.0121 0.12625 12.2084C0.0240833 14.4091 0 15.1117 0 20.7155C0 26.3192 0.0240833 27.0219 0.12625 29.2227C0.22825 31.4189 0.583083 32.9188 1.10208 34.2312C1.63858 35.588 2.35633 36.7388 3.5235 37.8858C4.69058 39.033 5.86142 39.7384 7.24183 40.2658C8.57725 40.7758 10.1032 41.1247 12.3378 41.2249C14.5769 41.3253 15.2919 41.349 20.9933 41.349C26.6948 41.349 27.4097 41.3253 29.6488 41.2249C31.8834 41.1247 33.4094 40.7758 34.7448 40.2658C36.1253 39.7384 37.2961 39.033 38.4632 37.8858C39.6303 36.7388 40.3481 35.5881 40.8846 34.2312C41.4036 32.9188 41.7585 31.4189 41.8604 29.2227C41.9626 27.0219 41.9868 26.3192 41.9868 20.7155C41.9868 15.1118 41.9626 14.4091 41.8604 12.2084C41.7585 10.0121 41.4036 8.51224 40.8846 7.19972C40.3481 5.84297 39.6303 4.69229 38.4632 3.54513C37.2961 2.39805 36.1253 1.69252 34.7448 1.1653C33.4094 0.655201 31.8834 0.306368 29.6488 0.206199C27.4097 0.105784 26.6948 0.0820312 20.9933 0.0820312ZM20.9933 3.79977C26.5988 3.79977 27.2628 3.82074 29.4764 3.92001C31.5233 4.01182 32.6348 4.34796 33.3746 4.63053C34.3545 5.00484 35.0539 5.45195 35.7885 6.17394C36.5231 6.89602 36.978 7.58336 37.3589 8.54648C37.6463 9.27355 37.9883 10.3661 38.0818 12.3778C38.1827 14.5535 38.2041 15.2062 38.2041 20.7155C38.2041 26.2249 38.1827 26.8775 38.0818 29.0531C37.9883 31.065 37.6463 32.1575 37.3589 32.8846C36.978 33.8476 36.5231 34.535 35.7885 35.257C35.0539 35.9791 34.3545 36.4262 33.3746 36.8005C32.6348 37.083 31.5233 37.4192 29.4764 37.511C27.2631 37.6102 26.5992 37.6313 20.9933 37.6313C15.3874 37.6313 14.7236 37.6102 12.5103 37.511C10.4634 37.4192 9.35175 37.083 8.612 36.8005C7.63217 36.4262 6.93275 35.9791 6.19817 35.257C5.46358 34.535 5.00858 33.8476 4.62775 32.8846C4.34033 32.1575 3.99833 31.065 3.90492 29.0532C3.80392 26.8775 3.78258 26.2249 3.78258 20.7155C3.78258 15.2062 3.80392 14.5535 3.90492 12.3778C3.99833 10.3661 4.34033 9.27355 4.62775 8.54648C5.00858 7.58336 5.46358 6.89602 6.19817 6.17403C6.93275 5.45195 7.63217 5.00484 8.612 4.63053C9.35175 4.34796 10.4634 4.01182 12.5102 3.92001C14.7239 3.82074 15.3878 3.79977 20.9933 3.79977Z" fill="#221E20"/>
</g>
<path fill-rule="evenodd" clip-rule="evenodd" d="M20.9933 27.5935C17.1286 27.5935 13.9955 24.5141 13.9955 20.7156C13.9955 16.9171 17.1286 13.8379 20.9933 13.8379C24.8581 13.8379 27.9911 16.9171 27.9911 20.7156C27.9911 24.5141 24.8581 27.5935 20.9933 27.5935ZM20.9933 10.1201C15.0395 10.1201 10.2129 14.8639 10.2129 20.7156C10.2129 26.5675 15.0395 31.3113 20.9933 31.3113C26.9471 31.3113 31.7736 26.5675 31.7736 20.7156C31.7736 14.8639 26.9471 10.1201 20.9933 10.1201Z" fill="#221E20"/>
<path fill-rule="evenodd" clip-rule="evenodd" d="M34.7191 9.70108C34.7191 11.0686 33.5912 12.1771 32.1999 12.1771C30.8086 12.1771 29.6807 11.0686 29.6807 9.70108C29.6807 8.3336 30.8086 7.2251 32.1999 7.2251C33.5912 7.2251 34.7191 8.3336 34.7191 9.70108Z" fill="#221E20"/>
</svg>
