<svg width="32" height="43" viewBox="0 0 32 43" fill="none" xmlns="http://www.w3.org/2000/svg">
<path fill-rule="evenodd" clip-rule="evenodd" d="M6.8629 39.37C6.98023 40.3792 7.19478 41.9125 7.1982 41.9446C8.83072 39.9133 11.018 35.855 11.6843 33.3595C11.9988 32.1821 13.2436 27.3629 13.2436 27.3629C14.0598 28.9316 16.4443 30.2595 18.9805 30.2595C26.5299 30.2595 31.9691 23.2629 31.9691 14.5691C31.9691 6.00208 26.3799 0 16.5383 0C5.73672 0 0 7.30769 0 15.2652C0 18.9651 1.95438 23.5712 5.08072 25.0377C5.5549 25.2599 5.8085 25.1621 5.91772 24.7003C6.00063 24.3497 6.4229 22.6364 6.61295 21.8395C6.67378 21.5847 6.64371 21.3658 6.4393 21.1161C5.4053 19.8523 4.57658 17.5274 4.57658 15.3593C4.57658 9.79558 8.75691 4.41205 15.8787 4.41205C22.0276 4.41205 26.3339 8.63496 26.3339 14.6748C26.3339 21.4988 22.9144 26.2263 18.4655 26.2263C16.0084 26.2263 14.1693 24.1788 14.759 21.668C15.4647 18.6691 16.8321 15.4333 16.8321 13.269C16.8321 11.3314 15.8004 9.71558 13.665 9.71558C11.1533 9.71558 9.13595 12.3343 9.13595 15.8418C9.13595 18.076 9.88477 19.5871 9.88477 19.5871C9.88477 19.5871 7.40435 30.1573 6.94969 32.1259C6.46502 34.2239 6.63114 37.3767 6.8629 39.37Z" fill="#221E20"/>
</svg>
