<svg width="43" height="30" viewBox="0 0 43 30" fill="none" xmlns="http://www.w3.org/2000/svg">
<g clip-path="url(#clip0_140_840)">
<mask id="mask0_140_840" style="mask-type:alpha" maskUnits="userSpaceOnUse" x="0" y="0" width="43" height="30">
<path d="M0 0H42.9999V29.8395H0V0Z" fill="white"/>
</mask>
<g mask="url(#mask0_140_840)">
<path fill-rule="evenodd" clip-rule="evenodd" d="M42.1014 4.65955C43 7.98377 43 14.9198 43 14.9198C43 14.9198 43 21.8556 42.1014 25.1803C41.6069 27.0142 40.15 28.4585 38.2996 28.949C34.9465 29.8396 21.5 29.8396 21.5 29.8396C21.5 29.8396 8.05346 29.8396 4.70019 28.949C2.84997 28.4585 1.39286 27.0142 0.898358 25.1803C0 21.8556 0 14.9198 0 14.9198C0 14.9198 0 7.98377 0.898358 4.65955C1.39286 2.82537 2.84997 1.38104 4.70019 0.890856C8.05346 0 21.5 0 21.5 0C21.5 0 34.9465 0 38.2996 0.890856C40.15 1.38104 41.6069 2.82537 42.1014 4.65955ZM17.1022 21.2172L28.3408 14.9201L17.1022 8.62246V21.2172Z" fill="#221E20"/>
</g>
</g>
<defs>
<clipPath id="clip0_140_840">
<rect width="43" height="30" fill="white"/>
</clipPath>
</defs>
</svg>
