<svg width="43" height="42" viewBox="0 0 43 42" fill="none" xmlns="http://www.w3.org/2000/svg">
<g clip-path="url(#clip0_213_6288)">
<path d="M36.7029 6.15085C33.1856 2.71519 28.5575 0.57704 23.6071 0.100711C18.6568 -0.375618 13.6905 0.839347 9.55441 3.53859C5.41836 6.23783 2.36849 10.2543 0.924446 14.9038C-0.519594 19.5532 -0.26845 24.5478 1.63508 29.0366C3.53862 33.5254 6.97677 37.2307 11.3637 39.5211C15.7506 41.8115 20.8149 42.5453 25.6937 41.5974C30.5724 40.6496 34.9638 38.0787 38.1195 34.323C41.2751 30.5672 42.9999 25.8589 42.9999 21.0002C43.0076 18.2414 42.4551 15.5084 41.3742 12.9595C40.2933 10.4106 38.7056 8.0964 36.7029 6.15085ZM21.4999 39.4393C17.076 39.4513 12.7905 37.9339 9.40226 35.1556C10.327 33.0447 11.8046 31.2089 13.6865 29.833C15.9663 28.166 18.7395 27.2689 21.5873 27.2771C24.1653 27.2798 26.6866 28.0164 28.8427 29.3969C30.9988 30.7773 32.6961 32.7417 33.727 35.0497C30.3199 37.894 25.9819 39.4514 21.4999 39.4393ZM35.7039 33.1461C34.3706 30.6101 32.3479 28.4818 29.8577 26.9948C27.3675 25.5077 24.5061 24.7194 21.5873 24.7162C18.6442 24.7169 15.7593 25.5169 13.2548 27.0268C10.7504 28.5367 8.72507 30.6971 7.4052 33.2665C4.13805 29.6836 2.42933 24.9981 2.64185 20.2046C2.85438 15.4112 4.97141 10.8874 8.54344 7.59391C12.1155 4.30039 16.8611 2.4965 21.7728 2.56527C26.6845 2.63404 31.3753 4.57005 34.8492 7.96223C38.2362 11.2707 40.209 15.7131 40.3677 20.3893C40.5264 25.0654 38.8592 29.6257 35.7039 33.146V33.1461Z" fill="black"/>
<path d="M21.5002 6.32373C20.0013 6.32373 18.5362 6.75786 17.2899 7.57121C16.0437 8.38456 15.0723 9.5406 14.4987 10.8932C13.9252 12.2457 13.7751 13.734 14.0675 15.1699C14.3599 16.6057 15.0817 17.9247 16.1415 18.9599C17.2014 19.9951 18.5517 20.7 20.0217 20.9857C21.4918 21.2713 23.0155 21.1247 24.4003 20.5644C25.785 20.0042 26.9686 19.0554 27.8013 17.8382C28.634 16.6209 29.0785 15.1898 29.0785 13.7258C29.0762 11.7634 28.277 9.88193 26.8563 8.49427C25.4356 7.1066 23.5094 6.32601 21.5002 6.32373V6.32373ZM21.5002 18.5669C20.5199 18.5669 19.5617 18.283 18.7466 17.751C17.9315 17.2191 17.2962 16.463 16.9211 15.5784C16.546 14.6938 16.4478 13.7204 16.6391 12.7814C16.8303 11.8423 17.3024 10.9797 17.9955 10.3026C18.6887 9.62559 19.5718 9.16452 20.5333 8.97773C21.4947 8.79093 22.4913 8.8868 23.3969 9.25321C24.3026 9.61963 25.0766 10.2401 25.6213 11.0362C26.1659 11.8323 26.4566 12.7683 26.4566 13.7258C26.4551 15.0093 25.9324 16.2398 25.0032 17.1474C24.0741 18.055 22.8142 18.5655 21.5002 18.5669Z" fill="black"/>
</g>
<defs>
<clipPath id="clip0_213_6288">
<rect width="43" height="42" fill="white"/>
</clipPath>
</defs>
</svg>
