<svg width="43" height="43" viewBox="0 0 43 43" fill="none" xmlns="http://www.w3.org/2000/svg">
<g clip-path="url(#clip0_140_801)">
<path d="M21.5001 41.9763C32.8088 41.9763 41.9763 32.8088 41.9763 21.5001C41.9763 10.1914 32.8088 1.02393 21.5001 1.02393C10.1914 1.02393 1.02393 10.1914 1.02393 21.5001C1.02393 32.8088 10.1914 41.9763 21.5001 41.9763Z" stroke="black" stroke-width="1.5"/>
<path d="M21.5003 31.7384C27.1546 31.7384 31.7384 27.1546 31.7384 21.5003C31.7384 15.846 27.1546 11.2622 21.5003 11.2622C15.846 11.2622 11.2622 15.846 11.2622 21.5003C11.2622 27.1546 15.846 31.7384 21.5003 31.7384Z" stroke="black" stroke-width="1.5"/>
<path d="M24.5718 11.5734V1.70654" stroke="black" stroke-width="1.5"/>
<path d="M19.1113 11.5733V1.02393" stroke="black" stroke-width="1.5"/>
<path d="M24.5718 41.6051V31.397" stroke="black" stroke-width="1.5"/>
<path d="M19.1113 41.6051V31.7383" stroke="black" stroke-width="1.5"/>
<path d="M31.3967 19.1113L41.9761 19.1113" stroke="black" stroke-width="1.5"/>
<path d="M1.0237 25.0835L11.9443 25.0835" stroke="black" stroke-width="1.5"/>
<path d="M30.7146 25.0835L41.6353 25.0835" stroke="black" stroke-width="1.5"/>
<path d="M1.0237 19.1113L11.9443 19.1113" stroke="black" stroke-width="1.5"/>
</g>
<defs>
<clipPath id="clip0_140_801">
<rect width="43" height="43" fill="white"/>
</clipPath>
</defs>
</svg>
