<svg width="43" height="40" viewBox="0 0 43 40" fill="none" xmlns="http://www.w3.org/2000/svg">
<g clip-path="url(#clip0_140_783)">
<path fill-rule="evenodd" clip-rule="evenodd" d="M21.5105 7.62008C23.3122 3.90396 26.1684 1.91732 29.8368 1.3374C35.8608 0.386278 41.1729 4.96228 41.7411 10.9798C42.0785 14.5539 41.0552 17.7135 39.4589 20.7288C37.7961 23.8685 35.48 26.4185 32.9972 28.7872C31.1558 30.5434 29.2375 32.2079 27.3227 33.8724C25.4239 35.5226 23.4865 37.1215 21.5132 38.7877C20.597 38.0207 19.6565 37.2629 18.7446 36.4669C15.8388 33.9311 12.8928 31.4444 10.0587 28.8174C7.24107 26.2052 4.74181 23.2686 3.01615 19.6563C1.88296 17.2841 1.18752 14.7934 1.19439 12.1026C1.20759 7.1314 4.38327 2.83081 9.04541 1.56378C13.575 0.333817 18.9907 2.45047 21.3204 7.29106C21.3632 7.38058 21.4186 7.46213 21.5105 7.62008Z" stroke="black" stroke-width="1.5"/>
</g>
<defs>
<clipPath id="clip0_140_783">
<rect width="43" height="40" fill="white"/>
</clipPath>
</defs>
</svg>
